<?xml version="1.0" encoding="UTF-8"?>
<svg id="Layer_2" data-name="Layer 2" xmlns="http://www.w3.org/2000/svg" viewBox="0 0 199.49 135.42">
  <g id="Layer_1-2" data-name="Layer 1">
    <g>
      <path d="M199.49,41.8c0,2.85-.3,5.65-.83,8.35-1.26,6.17-3.88,11.84-7.53,16.71-7.62,10.14-19.76,16.71-33.42,16.71h-24.03v-16.71h24.03c10.9,0,20.2-6.98,23.64-16.71.92-2.59,1.42-5.42,1.42-8.35s-.51-5.76-1.42-8.35c-3.44-9.73-12.74-16.71-23.64-16.71H62.61L42.68,0h115.03c13.68,0,25.82,6.56,33.42,16.73,3.65,4.87,6.27,10.53,7.53,16.71.53,2.71.83,5.49.83,8.35Z"/>
      <path d="M166.07,41.8c0,4.61-3.74,8.35-8.35,8.35h-40.74v85.26h-16.71l-66.86-56.09v-21.73l66.86,56.09.05-.05-.05-.05V33.44h57.45c4.61,0,8.35,3.74,8.35,8.35Z"/>
      <polygon points="83.56 56.12 83.56 77.83 16.7 21.74 16.7 135.42 0 135.42 0 0 16.7 0 16.7 .03 83.56 56.12"/>
    </g>
  </g>
</svg>